{
  "accessors": [
    {
      "bufferView": 2,
      "componentType": 5126,
      "count": 994,
      "max": [
        1.025101661682129,
        5.634926795959473,
        5.217827320098877
      ],
      "min": [
        -1.025101661682129,
        0.8398001194000244,
        -4.797093391418457
      ],
      "type": "VEC3"
    },
    {
      "bufferView": 2,
      "byteOffset": 11928,
      "componentType": 5126,
      "count": 994,
      "max": [
        0.9992825388908386,
        0.9843719601631165,
        0.9834455251693726
      ],
      "min": [
        -0.9992825388908386,
        -0.9927353858947754,
        -0.9312791228294373
      ],
      "type": "VEC3"
    },
    {
      "bufferView": 1,
      "componentType": 5126,
      "count": 994,
      "max": [
        0.1815567910671234,
        0.9995412826538086
      ],
      "min": [
        0.0,
        0.0
      ],
      "type": "VEC2"
    },
    {
      "bufferView": 0,
      "componentType": 5125,
      "count": 1482,
      "type": "SCALAR"
    },
    {
      "bufferView": 2,
      "byteOffset": 23856,
      "componentType": 5126,
      "count": 466,
      "max": [
        1.0935485363006592,
        5.703266143798828,
        5.1362433433532715
      ],
      "min": [
        -1.0935485363006592,
        0.9354140758514404,
        -5.725396633148193
      ],
      "type": "VEC3"
    },
    {
      "bufferView": 2,
      "byteOffset": 29448,
      "componentType": 5126,
      "count": 466,
      "max": [
        0.9578283429145813,
        0.9785565733909607,
        0.9626480340957642
      ],
      "min": [
        -0.9578283429145813,
        -0.9944319128990173,
        -0.6886201500892639
      ],
      "type": "VEC3"
    },
    {
      "bufferView": 1,
      "byteOffset": 7952,
      "componentType": 5126,
      "count": 466,
      "max": [
        0.1815567910671234,
        0.9799902439117432
      ],
      "min": [
        0.0,
        0.0
      ],
      "type": "VEC2"
    },
    {
      "bufferView": 0,
      "byteOffset": 5928,
      "componentType": 5125,
      "count": 696,
      "type": "SCALAR"
    },
    {
      "bufferView": 2,
      "byteOffset": 35040,
      "componentType": 5126,
      "count": 1994,
      "max": [
        1.0935485363006592,
        5.7460832595825195,
        5.254311561584473
      ],
      "min": [
        -1.0935485363006592,
        0.012069940567016602,
        -2.1672613620758057
      ],
      "type": "VEC3"
    },
    {
      "bufferView": 2,
      "byteOffset": 58968,
      "componentType": 5126,
      "count": 1994,
      "max": [
        1.0,
        0.9606029391288757,
        1.0
      ],
      "min": [
        -1.0,
        -1.0,
        -0.9989644289016724
      ],
      "type": "VEC3"
    },
    {
      "bufferView": 1,
      "byteOffset": 11680,
      "componentType": 5126,
      "count": 1994,
      "max": [
        1.0,
        1.0
      ],
      "min": [
        0.0,
        0.0
      ],
      "type": "VEC2"
    },
    {
      "bufferView": 0,
      "byteOffset": 8712,
      "componentType": 5125,
      "count": 2904,
      "type": "SCALAR"
    },
    {
      "bufferView": 2,
      "byteOffset": 82896,
      "componentType": 5126,
      "count": 130,
      "max": [
        0.28907322883605957,
        3.5811421871185303,
        3.931168556213379
      ],
      "min": [
        -0.30037176609039307,
        3.128307342529297,
        3.4276936054229736
      ],
      "type": "VEC3"
    },
    {
      "bufferView": 2,
      "byteOffset": 84456,
      "componentType": 5126,
      "count": 130,
      "max": [
        0.7278841137886047,
        0.9948659539222717,
        0.9991307258605957
      ],
      "min": [
        -0.7278841137886047,
        -0.9948659539222717,
        -0.9991307258605957
      ],
      "type": "VEC3"
    },
    {
      "bufferView": 1,
      "byteOffset": 27632,
      "componentType": 5126,
      "count": 130,
      "max": [
        1.0,
        1.0
      ],
      "min": [
        0.0,
        0.01000000536441803
      ],
      "type": "VEC2"
    },
    {
      "bufferView": 0,
      "byteOffset": 20328,
      "componentType": 5125,
      "count": 372,
      "type": "SCALAR"
    },
    {
      "bufferView": 2,
      "byteOffset": 86016,
      "componentType": 5126,
      "count": 24,
      "max": [
        0.14957132935523987,
        3.44398832321167,
        3.8675851821899414
      ],
      "min": [
        -0.16086983680725098,
        3.1708645820617676,
        3.5617709159851074
      ],
      "type": "VEC3"
    },
    {
      "bufferView": 2,
      "byteOffset": 86304,
      "componentType": 5126,
      "count": 24,
      "max": [
        0.8319905996322632,
        0.9796916246414185,
        0.9982728362083435
      ],
      "min": [
        -0.8319905996322632,
        -0.9799965620040894,
        -0.9983615279197693
      ],
      "type": "VEC3"
    },
    {
      "bufferView": 1,
      "byteOffset": 28672,
      "componentType": 5126,
      "count": 24,
      "max": [
        0.0,
        0.0
      ],
      "min": [
        0.0,
        0.0
      ],
      "type": "VEC2"
    },
    {
      "bufferView": 0,
      "byteOffset": 21816,
      "componentType": 5125,
      "count": 108,
      "type": "SCALAR"
    }
  ],
  "asset": {
    "extras": {
      "author": "Liberi Arcano (https://sketchfab.com/LiberiArcano)",
      "license": "CC-BY-4.0 (http://creativecommons.org/licenses/by/4.0/)",
      "source": "https://sketchfab.com/3d-models/3december-2020-day-17-animal-eb78f80501484b8d818205746724f644",
      "title": "3December 2020 Day 17: #Animal"
    },
    "generator": "Sketchfab-12.66.0",
    "version": "2.0"
  },
  "bufferViews": [
    {
      "buffer": 0,
      "byteLength": 22248,
      "name": "floatBufferViews",
      "target": 34963
    },
    {
      "buffer": 0,
      "byteLength": 28864,
      "byteOffset": 22248,
      "byteStride": 8,
      "name": "floatBufferViews",
      "target": 34962
    },
    {
      "buffer": 0,
      "byteLength": 86592,
      "byteOffset": 51112,
      "byteStride": 12,
      "name": "floatBufferViews",
      "target": 34962
    }
  ],
  "buffers": [
    {
      "byteLength": 137704,
      "uri": "scene.bin"
    }
  ],
  "materials": [
    {
      "doubleSided": true,
      "name": "Mat_FoxBase",
      "pbrMetallicRoughness": {
        "baseColorFactor": [
          0.577581,
          0.17144100000000007,
          0.026241200000000006,
          1.0
        ],
        "metallicFactor": 0.0
      }
    },
    {
      "doubleSided": true,
      "name": "Mat_FoxWhite",
      "pbrMetallicRoughness": {
        "baseColorFactor": [
          0.8,
          0.8,
          0.8,
          1.0
        ],
        "metallicFactor": 0.0,
        "roughnessFactor": 0.5
      }
    },
    {
      "doubleSided": true,
      "name": "Mat_FoxBlack",
      "pbrMetallicRoughness": {
        "baseColorFactor": [
          0.0497066,
          0.0466651,
          0.0466651,
          1.0
        ],
        "metallicFactor": 0.0
      }
    },
    {
      "doubleSided": true,
      "name": "Mat_LogoCircle",
      "pbrMetallicRoughness": {
        "baseColorFactor": [
          0.014443800000000003,
          0.3967549999999998,
          0.686685,
          1.0
        ],
        "metallicFactor": 0.0,
        "roughnessFactor": 0.5
      }
    },
    {
      "doubleSided": true,
      "name": "Mat_Polygons",
      "pbrMetallicRoughness": {
        "metallicFactor": 0.0,
        "roughnessFactor": 0.5
      }
    }
  ],
  "meshes": [
    {
      "name": "Object_0",
      "primitives": [
        {
          "attributes": {
            "NORMAL": 1,
            "POSITION": 0,
            "TEXCOORD_0": 2
          },
          "indices": 3,
          "material": 0,
          "mode": 4
        }
      ]
    },
    {
      "name": "Object_1",
      "primitives": [
        {
          "attributes": {
            "NORMAL": 5,
            "POSITION": 4,
            "TEXCOORD_0": 6
          },
          "indices": 7,
          "material": 1,
          "mode": 4
        }
      ]
    },
    {
      "name": "Object_2",
      "primitives": [
        {
          "attributes": {
            "NORMAL": 9,
            "POSITION": 8,
            "TEXCOORD_0": 10
          },
          "indices": 11,
          "material": 2,
          "mode": 4
        }
      ]
    },
    {
      "name": "Object_3",
      "primitives": [
        {
          "attributes": {
            "NORMAL": 13,
            "POSITION": 12,
            "TEXCOORD_0": 14
          },
          "indices": 15,
          "material": 3,
          "mode": 4
        }
      ]
    },
    {
      "name": "Object_4",
      "primitives": [
        {
          "attributes": {
            "NORMAL": 17,
            "POSITION": 16,
            "TEXCOORD_0": 18
          },
          "indices": 19,
          "material": 4,
          "mode": 4
        }
      ]
    }
  ],
  "nodes": [
    {
      "children": [
        1
      ],
      "matrix": [
        1.0,
        0.0,
        0.0,
        0.0,
        0.0,
        2.220446049250313e-16,
        -1.0,
        0.0,
        0.0,
        1.0,
        2.220446049250313e-16,
        0.0,
        0.0,
        0.0,
        0.0,
        1.0
      ],
      "name": "Sketchfab_model"
    },
    {
      "children": [
        2
      ],
      "name": "root"
    },
    {
      "children": [
        3
      ],
      "matrix": [
        1.0,
        0.0,
        0.0,
        0.0,
        0.0,
        2.220446049250313e-16,
        1.0,
        0.0,
        0.0,
        -1.0,
        2.220446049250313e-16,
        0.0,
        0.0,
        0.0,
        0.0,
        1.0
      ],
      "name": "GLTF_SceneRootNode"
    },
    {
      "children": [
        4,
        5,
        6,
        7,
        8
      ],
      "matrix": [
        0.7421347498893738,
        0.0,
        0.0,
        0.0,
        0.0,
        0.7421347498893738,
        0.0,
        0.0,
        0.0,
        0.0,
        0.7421347498893738,
        0.0,
        0.0,
        0.0,
        0.0,
        1.0
      ],
      "name": "Plane_5"
    },
    {
      "mesh": 0,
      "name": "Object_4"
    },
    {
      "mesh": 1,
      "name": "Object_5"
    },
    {
      "mesh": 2,
      "name": "Object_6"
    },
    {
      "mesh": 3,
      "name": "Object_7"
    },
    {
      "mesh": 4,
      "name": "Object_8"
    }
  ],
  "scene": 0,
  "scenes": [
    {
      "name": "Sketchfab_Scene",
      "nodes": [
        0
      ]
    }
  ]
}
